<svg width="24" height="27" viewBox="0 0 24 27" fill="none" xmlns="http://www.w3.org/2000/svg">
<path fill-rule="evenodd" clip-rule="evenodd" d="M0.441555 23.1733C1.11791 22.502 6.32493 17.0709 7.55633 15.786C6.57082 14.2382 5.99374 12.3678 5.99374 10.3524C5.99385 5.02242 10.0247 0.70166 14.9969 0.70166C19.9692 0.70166 24 5.02242 24 10.3524C24 15.6824 19.9692 20.0032 14.9969 20.0032C13.2342 20.0032 11.5912 19.4581 10.2027 18.5196C9.08301 19.7102 3.82832 25.2935 3.11179 25.9977C2.78659 26.3171 2.39537 26.474 1.99618 26.474C1.50002 26.4739 0.991856 26.2315 0.584354 25.7574C-0.13645 24.9188 -0.197866 23.8078 0.441555 23.1733ZM21.8078 10.3526C21.8078 6.32685 18.7524 3.0517 14.9969 3.0517C11.2413 3.0517 8.18594 6.32685 8.18594 10.3526C8.18594 14.3783 11.2413 17.6534 14.9969 17.6534C18.7524 17.6534 21.8078 14.3783 21.8078 10.3526Z" fill="#757575"/>
</svg>
