<svg width="1440" height="168" viewBox="0 0 1440 168" fill="none" xmlns="http://www.w3.org/2000/svg">
<path d="M0 32.2728C0 32.2728 100.191 15.6367 170.401 11.4329C310.471 3.04643 387.01 34.5512 529.46 32.2728C670.414 30.0184 735.891 5.01824 876.347 0.697227C1020.85 -3.7482 1101.73 14.6434 1246.56 11.4329C1328.86 9.60874 1455 0.697227 1455 0.697227V124H0V32.2728Z" fill="#F05A28" fill-opacity="0.81"/>
<path d="M0 71.2531V147.09C0 147.09 111.241 133.949 252.408 138.168C393.575 142.387 558.79 167.948 700.78 168C844.531 168.053 882.518 147.824 1025.46 143.605C1168.4 139.386 1455 147.09 1455 147.09V60.5856C1455 60.5856 1334.3 46.602 1254.99 47.0087C1155.5 47.5188 1098.04 78.8478 999.053 82.6965C834.358 89.0998 803.178 49.1308 640.341 60.5856C539.348 67.69 392.971 89.291 252.408 71.2531C123.885 54.7602 0 71.2531 0 71.2531Z" fill="#FAAF3F"/>
</svg>
